<svg width="20" height="20" viewBox="0 0 20 20" fill="none" xmlns="http://www.w3.org/2000/svg">
<path d="M14.7631 11.4368C14.844 10.3991 14.7526 9.27162 14.4578 8.09326C12.1415 8.56501 9.95864 8.51582 5.17639 8.09326C4.21638 13.5341 5.81713 17.0547 9.33704 17.3747C11.5466 17.3747 13.3323 15.9982 14.2069 13.8542M14.7631 11.4368C14.7631 11.4368 15.4783 9.91865 16.3789 9.69351C17.6591 9.37346 18.2992 14.628 16.0588 14.4943C15.2456 14.4457 14.2069 13.8542 14.2069 13.8542M14.7631 11.4368C14.6947 12.3148 14.503 13.1284 14.2069 13.8542M6.60496 6.70403C6.60496 6.70403 6.07057 6.20868 5.81363 5.82477C5.44304 5.27106 5.59952 4.78228 5.11022 4.33004C4.58104 3.84092 3.86598 4.30448 3.39567 3.75852C3.12932 3.44933 3 2.79133 3 2.79133M9.15481 2C9.15481 2 10.9133 2.25424 10.9133 3.05511C10.9133 4.28607 9.02292 4.46192 8.935 5.64892C8.8937 6.20636 9.90218 6.70403 9.90218 6.70403M12.9796 6.39629C12.9796 6.39629 12.5441 5.32445 12.9796 4.98948C13.5511 4.54985 14.8535 5.22045 15.4415 4.46192C15.8969 3.87453 15.1372 3.22678 15.6174 2.65944C15.775 2.47318 16.101 2.26378 16.101 2.26378" stroke="#A6A6A6" stroke-linecap="round"/>
</svg>
