<svg width="12" height="15" viewBox="0 0 12 15" fill="none" xmlns="http://www.w3.org/2000/svg">
<g clip-path="url(#clip0_5188_218)">
<path d="M10.0227 7.97783C10.0374 6.81992 10.6489 5.72427 11.6189 5.11778C11.0069 4.22896 9.9819 3.66542 8.91555 3.63149C7.7781 3.51008 6.67547 4.32365 6.09587 4.32365C5.50505 4.32365 4.61266 3.64355 3.65171 3.66365C2.39915 3.70481 1.23145 4.42904 0.622057 5.5427C-0.687904 7.84921 0.289209 11.239 1.54404 13.1034C2.17187 14.0164 2.90561 15.0362 3.86569 15C4.80519 14.9603 5.15608 14.3907 6.29013 14.3907C7.41367 14.3907 7.74285 15 8.72242 14.977C9.73057 14.9603 10.3658 14.06 10.9715 13.1384C11.4226 12.4879 11.7697 11.7689 12 11.0081C10.8153 10.4986 10.024 9.28606 10.0227 7.97783Z" fill="white"/>
<path d="M8.1734 2.40446C8.72308 1.73339 8.9939 0.870847 8.92828 0C8.0885 0.0897 7.31281 0.497876 6.75571 1.1432C6.21094 1.77371 5.92744 2.62108 5.98104 3.45864C6.82112 3.46744 7.64698 3.07032 8.1734 2.40446Z" fill="white"/>
</g>
<defs>
<clipPath id="clip0_5188_218">
<rect width="12" height="15" fill="white"/>
</clipPath>
</defs>
</svg>
